<?xml version="1.0" encoding="iso-8859-1"?>
<!-- Generator: Adobe Illustrator 18.1.0, SVG Export Plug-In . SVG Version: 6.00 Build 0)  -->
<svg version="1.0" xmlns="http://www.w3.org/2000/svg" xmlns:xlink="http://www.w3.org/1999/xlink" x="0px" y="0px"
	 viewBox="0 0 968.083 716.641" style="enable-background:new 0 0 968.083 716.641;" xml:space="preserve">
<g id="Background">
</g>
<g id="Objects">
	<g>
		<g>
			<g>
				<path style="fill:#FFFFFF;" d="M18.911,676.862V568.101h60.036v21.752H44.433v19.288h31.758v21.752H44.433v45.969H18.911z"/>
				<path style="fill:#FFFFFF;" d="M89.533,676.862V568.101h25.522v108.761H89.533z"/>
				<path style="fill:#FFFFFF;" d="M146.233,640.464v7.686c0,3.576,0.748,6.43,2.247,8.555c1.498,2.127,4.134,3.19,7.904,3.19
					c2.803,0,4.93-1.063,6.381-3.19c1.45-2.125,2.175-4.688,2.175-7.686c0-3.674-1.014-6.573-3.044-8.701
					c-2.031-2.125-5.076-4.398-9.136-6.816c-0.486-0.29-1.16-0.674-2.031-1.159c-4.544-2.611-8.338-5.003-11.383-7.178
					c-3.045-2.175-5.681-4.518-7.904-7.032c-2.418-2.9-4.256-6.115-5.51-9.645c-1.258-3.528-1.886-7.562-1.886-12.108
					c0-10.055,2.828-17.715,8.483-22.986c5.656-5.267,13.509-7.904,23.565-7.904c10.343,0,18.344,2.95,24,8.847
					c5.655,5.897,8.483,13.729,8.483,23.491l-0.146,1.451c0,0.484,0,0.967,0,1.449h-23.492v-1.305
					c-0.097-2.125-0.242-3.916-0.435-5.365c-0.195-1.451-0.558-2.851-1.087-4.206c-0.533-1.353-1.355-2.465-2.466-3.336
					c-1.112-0.87-2.587-1.351-4.423-1.449c-2.707,0-4.785,0.63-6.236,1.885c-1.45,1.257-2.32,3.046-2.611,5.365
					c0,0.196,0,0.486,0,0.871c-0.097,0.29-0.145,0.58-0.145,0.87c0,2.515,0.653,4.617,1.958,6.309
					c1.305,1.691,3.263,3.456,5.873,5.293c1.933,1.257,4.978,3.094,9.136,5.509c7.153,4.158,12.036,7.446,14.647,9.861
					c3.19,2.9,5.558,6.381,7.105,10.442c1.545,4.06,2.321,9.233,2.321,15.516c0,10.442-2.805,18.468-8.411,24.073
					c-5.608,5.607-13.729,8.411-24.362,8.411c-5.608,0-10.539-0.726-14.792-2.177c-4.255-1.449-7.736-3.454-10.44-6.017
					c-2.708-2.561-4.713-5.487-6.019-8.773c-1.305-3.286-1.958-6.766-1.958-10.442v-11.6H146.233z"/>
				<path style="fill:#FFFFFF;" d="M239.767,606.094v-6.96c0-4.544-0.725-8.024-2.175-10.44c-1.45-2.417-3.433-3.626-5.946-3.626
					c-3.77,0-6.357,0.919-7.758,2.755c-1.403,1.839-2.103,4.691-2.103,8.557l-0.145,53.799c0,3.19,0.725,5.609,2.175,7.252
					c1.45,1.645,3.771,2.465,6.961,2.465c2.03,0,3.697-0.484,5.002-1.451c1.305-0.964,2.271-2.197,2.9-3.698
					c0.628-1.497,1.038-3.116,1.232-4.857c0.193-1.739,0.291-3.626,0.291-5.655v-9.861h25.522v13.341
					c0,9.861-2.997,17.619-8.991,23.275c-5.996,5.655-15.277,8.483-27.843,8.483c-11.408,0-19.699-2.924-24.87-8.773
					c-5.173-5.849-7.758-14.478-7.758-25.886v-44.664c0-11.794,2.778-20.521,8.338-26.176c5.558-5.655,14.186-8.483,25.885-8.483
					c11.214,0,19.817,2.539,25.813,7.614c5.993,5.075,8.991,13.029,8.991,23.855v9.135H239.767z"/>
				<path style="fill:#FFFFFF;" d="M270.364,676.862l23.782-108.761h30.743l23.637,108.761h-25.813l-3.625-21.173h-20.012
					l-3.045,21.173H270.364z M309.518,587.822h-0.29l-7.396,48.726h14.791L309.518,587.822z"/>
				<path style="fill:#FFFFFF;" d="M352.877,676.862V568.101H378.4v87.009h31.178v21.752H352.877z"/>
				<path style="fill:#FFFFFF;" d="M492.958,606.094v-6.96c0-4.544-0.725-8.024-2.175-10.44c-1.45-2.417-3.433-3.626-5.946-3.626
					c-3.77,0-6.357,0.919-7.758,2.755c-1.403,1.839-2.103,4.691-2.103,8.557l-0.145,53.799c0,3.19,0.725,5.609,2.175,7.252
					c1.45,1.645,3.771,2.465,6.961,2.465c2.03,0,3.697-0.484,5.002-1.451c1.305-0.964,2.271-2.197,2.9-3.698
					c0.628-1.497,1.038-3.116,1.232-4.857c0.193-1.739,0.291-3.626,0.291-5.655v-9.861h25.522v13.341
					c0,9.861-2.997,17.619-8.991,23.275c-5.996,5.655-15.277,8.483-27.843,8.483c-11.408,0-19.699-2.924-24.87-8.773
					c-5.173-5.849-7.758-14.478-7.758-25.886v-44.664c0-11.794,2.778-20.521,8.338-26.176c5.558-5.655,14.186-8.483,25.885-8.483
					c11.214,0,19.817,2.539,25.813,7.614c5.993,5.075,8.991,13.029,8.991,23.855v9.135H492.958z"/>
				<path style="fill:#FFFFFF;" d="M529.648,676.862V568.101h25.522v108.761H529.648z"/>
				<path style="fill:#FFFFFF;" d="M567.06,676.862V568.101h27.698c6.186,0,11.601,0.316,16.241,0.943
					c4.641,0.63,8.796,2.007,12.471,4.132c4.544,2.611,7.589,6.189,9.136,10.732c1.545,4.545,2.321,9.911,2.321,16.095v48.29
					c-0.098,11.216-3.723,19.048-10.876,23.493c-3.095,2.029-6.478,3.384-10.151,4.06c-3.675,0.678-7.831,1.015-12.471,1.015H567.06
					z M592.584,657.284c0.482,0,1.11,0,1.885,0c0.675,0.098,1.207,0.146,1.595,0.146c5.51,0,9.136-1.161,10.876-3.482
					c1.74-2.319,2.61-6.185,2.61-11.6c0-0.774-0.05-1.595-0.145-2.467c0-1.254,0-2.223,0-2.899v-35.529
					c0-3.19-0.29-5.679-0.87-7.468c-0.581-1.789-1.5-3.118-2.755-3.988c-1.257-0.871-2.877-1.451-4.858-1.741
					c-1.982-0.29-4.762-0.482-8.338-0.58V657.284z"/>
				<path style="fill:#FFFFFF;" d="M640.148,676.862l23.782-108.761h30.743l23.637,108.761h-25.813l-3.625-21.173H668.86
					l-3.045,21.173H640.148z M679.302,587.822h-0.29l-7.396,48.726h14.791L679.302,587.822z"/>
				<path style="fill:#FFFFFF;" d="M723.966,676.862V568.101h27.698c6.186,0,11.601,0.316,16.241,0.943
					c4.641,0.63,8.796,2.007,12.471,4.132c4.544,2.611,7.589,6.189,9.136,10.732c1.545,4.545,2.321,9.911,2.321,16.095v48.29
					c-0.098,11.216-3.723,19.048-10.876,23.493c-3.095,2.029-6.478,3.384-10.151,4.06c-3.675,0.678-7.831,1.015-12.471,1.015
					H723.966z M749.489,657.284c0.482,0,1.11,0,1.885,0c0.675,0.098,1.207,0.146,1.595,0.146c5.51,0,9.136-1.161,10.876-3.482
					c1.74-2.319,2.61-6.185,2.61-11.6c0-0.774-0.05-1.595-0.145-2.467c0-1.254,0-2.223,0-2.899v-35.529
					c0-3.19-0.29-5.679-0.87-7.468c-0.581-1.789-1.5-3.118-2.755-3.988c-1.257-0.871-2.877-1.451-4.858-1.741
					c-1.982-0.29-4.762-0.482-8.338-0.58V657.284z"/>
				<path style="fill:#FFFFFF;" d="M797.052,676.862l23.782-108.761h30.743l23.637,108.761h-25.813l-3.625-21.173h-20.012
					l-3.045,21.173H797.052z M834.321,556.645l-1.015-0.436c-3.77-1.449-6.333-2.175-7.686-2.175c-1.645,0-3.045,0.606-4.206,1.813
					c-1.159,1.209-1.885,2.683-2.175,4.424h-11.456c0.58-2.804,1.28-5.367,2.103-7.686c0.82-2.321,1.907-4.446,3.262-6.381
					c1.352-1.933,3.068-3.482,5.148-4.641c2.078-1.159,4.518-1.739,7.323-1.739c2.03,0,3.938,0.242,5.728,0.724
					c1.788,0.486,3.891,1.161,6.309,2.031c0.58,0.29,1.015,0.486,1.305,0.58c3.672,1.547,6.283,2.321,7.831,2.321
					c1.449,0,2.803-0.556,4.06-1.667c1.255-1.111,1.933-2.343,2.03-3.698h11.602c-0.581,5.607-2.393,10.223-5.438,13.849
					c-3.045,3.624-7.276,5.437-12.689,5.437C842.78,559.399,838.766,558.482,834.321,556.645z M836.206,587.822h-0.29l-7.396,48.726
					h14.791L836.206,587.822z"/>
				<path style="fill:#FFFFFF;" d="M949.172,642.203c0,12.761-2.611,22.166-7.831,28.205c-5.221,6.045-14.066,9.065-26.538,9.065
					c-12.569,0-21.512-3.046-26.828-9.137c-5.318-6.091-7.976-15.466-7.976-28.133v-44.228c0-10.442,3.02-18.466,9.063-24.073
					c6.041-5.605,14.621-8.411,25.74-8.411c11.116,0,19.625,2.806,25.522,8.411c5.896,5.607,8.846,13.631,8.846,24.073V642.203z
					 M923.65,599.714c0-2.125-0.098-3.988-0.291-5.583c-0.195-1.595-0.58-3.068-1.159-4.424c-0.581-1.351-1.475-2.465-2.683-3.334
					c-1.209-0.87-2.828-1.305-4.857-1.305c-1.935,0-3.53,0.436-4.785,1.305c-1.258,0.87-2.176,2.007-2.755,3.408
					s-0.992,2.924-1.232,4.568c-0.243,1.645-0.363,3.432-0.363,5.365v44.664c0,1.839,0.12,3.626,0.363,5.367
					c0.24,1.739,0.675,3.384,1.305,4.929c0.627,1.547,1.57,2.806,2.828,3.77c1.255,0.967,2.851,1.451,4.785,1.451
					c1.933,0,3.528-0.484,4.785-1.451c1.255-0.964,2.15-2.197,2.683-3.698c0.531-1.497,0.893-3.092,1.087-4.785
					c0.193-1.689,0.291-3.552,0.291-5.583V599.714z"/>
			</g>
		</g>
		<g>
			
				<circle id="XMLID_14_" style="fill:none;stroke:#00C7AD;stroke-width:8.5389;stroke-miterlimit:10;" cx="484.042" cy="264.448" r="227.28"/>
			<g>
				<g>
					<path style="fill:#00C7AD;" d="M691.947,264.448c0,3.548-5.516,6.94-5.691,10.444c-0.177,3.542,4.972,7.467,4.621,10.96
						c-0.354,3.527-6.183,6.348-6.711,9.821c-0.532,3.502,4.194,7.928,3.49,11.371c-0.709,3.469-6.794,5.684-7.673,9.088
						c-0.885,3.427,3.366,8.311,2.314,11.667c-1.058,3.376-7.337,4.959-8.559,8.259c-1.229,3.316,2.502,8.608,1.113,11.842
						c-1.396,3.248-7.803,4.184-9.356,7.344c-1.559,3.172,1.615,8.815-0.097,11.894c-1.717,3.087-8.186,3.368-10.053,6.356
						c-1.871,2.995,0.715,8.932-1.301,11.823c-2.019,2.896-8.484,2.522-10.644,5.308c-2.162,2.79-0.188,8.957-2.487,11.631
						c-2.3,2.677-8.694,1.653-11.124,4.209c-2.431,2.557-1.087,8.891-3.644,11.322c-2.556,2.431-8.815,0.77-11.491,3.069
						c-2.675,2.298-1.975,8.735-4.764,10.898c-2.786,2.16-8.846-0.123-11.742,1.897c-2.891,2.016-2.844,8.491-5.839,10.362
						c-2.989,1.867-8.786-1.016-11.873,0.701c-3.078,1.712-3.687,8.159-6.858,9.717c-3.16,1.553-8.635-1.903-11.883-0.508
						c-3.234,1.39-4.495,7.741-7.811,8.97c-3.299,1.222-8.394-2.774-11.769-1.716c-3.356,1.052-5.258,7.242-8.685,8.127
						c-3.404,0.879-8.064-3.616-11.533-2.906c-3.443,0.704-5.965,6.668-9.467,7.2c-3.472,0.528-7.652-4.417-11.179-4.062
						c-3.493,0.351-6.605,6.03-10.147,6.207c-3.505,0.175-7.167-5.164-10.715-5.164c-3.548,0-7.21,5.339-10.715,5.165
						c-3.542-0.177-6.654-5.855-10.147-6.206c-3.527-0.354-7.707,4.59-11.179,4.063c-3.502-0.532-6.025-6.496-9.468-7.2
						c-3.469-0.709-8.13,3.785-11.534,2.906c-3.427-0.885-5.329-7.075-8.685-8.127c-3.376-1.058-8.47,2.938-11.77,1.715
						c-3.316-1.229-4.577-7.58-7.811-8.97c-3.248-1.396-8.723,2.061-11.884,0.507c-3.172-1.559-3.78-8.005-6.858-9.718
						c-3.087-1.717-8.885,1.166-11.873-0.701c-2.995-1.871-2.948-8.346-5.839-10.362c-2.896-2.02-8.956,0.263-11.742-1.897
						c-2.79-2.163-2.09-8.6-4.764-10.898c-2.677-2.3-8.935-0.639-11.491-3.07c-2.557-2.431-1.213-8.765-3.644-11.322
						c-2.431-2.556-8.824-1.533-11.124-4.21c-2.298-2.675-0.324-8.841-2.487-11.631c-2.16-2.786-8.624-2.412-10.644-5.308
						c-2.016-2.891,0.57-8.827-1.301-11.822c-1.867-2.989-8.336-3.269-10.053-6.356c-1.712-3.078,1.461-8.722-0.097-11.893
						c-1.553-3.16-7.961-4.096-9.356-7.343c-1.39-3.234,2.341-8.526,1.112-11.842c-1.222-3.299-7.501-4.883-8.56-8.258
						c-1.052-3.356,3.199-8.24,2.314-11.667c-0.879-3.404-6.964-5.619-7.673-9.088c-0.704-3.443,4.022-7.869,3.49-11.371
						c-0.528-3.473-6.356-6.294-6.711-9.82c-0.351-3.493,4.798-7.419,4.621-10.96c-0.175-3.505-5.691-6.897-5.691-10.445
						c0-3.548,5.516-6.94,5.691-10.444c0.177-3.542-4.972-7.467-4.621-10.96c0.354-3.527,6.183-6.348,6.711-9.821
						c0.532-3.502-4.194-7.928-3.49-11.371c0.709-3.469,6.794-5.684,7.673-9.088c0.885-3.427-3.366-8.311-2.314-11.667
						c1.058-3.376,7.337-4.959,8.56-8.259c1.229-3.316-2.502-8.608-1.112-11.842c1.396-3.248,7.803-4.184,9.356-7.344
						c1.559-3.172-1.615-8.815,0.098-11.894c1.717-3.087,8.187-3.368,10.053-6.356c1.871-2.995-0.715-8.932,1.301-11.823
						c2.02-2.896,8.484-2.522,10.644-5.308c2.163-2.79,0.189-8.957,2.487-11.631c2.3-2.677,8.694-1.653,11.124-4.209
						c2.431-2.557,1.087-8.891,3.644-11.322c2.556-2.43,8.815-0.769,11.491-3.069c2.675-2.298,1.975-8.736,4.765-10.898
						c2.786-2.16,8.846,0.123,11.742-1.897c2.891-2.016,2.844-8.491,5.839-10.362c2.989-1.867,8.786,1.017,11.873-0.701
						c3.078-1.712,3.687-8.159,6.858-9.717c3.16-1.553,8.635,1.904,11.883,0.508c3.234-1.39,4.495-7.741,7.811-8.97
						c3.299-1.222,8.394,2.774,11.769,1.716c3.356-1.052,5.258-7.242,8.685-8.127c3.404-0.879,8.064,3.616,11.533,2.907
						c3.443-0.704,5.965-6.668,9.467-7.2c3.473-0.528,7.652,4.417,11.179,4.062c3.493-0.351,6.605-6.03,10.147-6.207
						c3.505-0.175,7.167,5.164,10.716,5.164c3.548,0,7.21-5.339,10.715-5.164c3.542,0.177,6.653,5.856,10.146,6.207
						c3.527,0.354,7.707-4.59,11.179-4.062c3.502,0.532,6.024,6.496,9.467,7.2c3.469,0.709,8.13-3.785,11.534-2.906
						c3.427,0.885,5.328,7.075,8.685,8.127c3.376,1.058,8.47-2.938,11.77-1.715c3.316,1.229,4.577,7.58,7.811,8.97
						c3.248,1.396,8.723-2.061,11.883-0.507c3.171,1.559,3.78,8.005,6.858,9.718c3.087,1.717,8.885-1.166,11.873,0.701
						c2.995,1.871,2.948,8.346,5.839,10.362c2.896,2.02,8.955-0.263,11.742,1.897c2.79,2.163,2.09,8.6,4.764,10.898
						c2.676,2.3,8.935,0.639,11.491,3.07c2.557,2.431,1.213,8.765,3.644,11.322c2.43,2.556,8.824,1.533,11.124,4.21
						c2.298,2.675,0.324,8.841,2.486,11.631c2.16,2.786,8.624,2.412,10.644,5.308c2.016,2.891-0.57,8.827,1.301,11.822
						c1.867,2.989,8.336,3.269,10.053,6.356c1.712,3.078-1.461,8.722,0.097,11.893c1.553,3.16,7.96,4.096,9.356,7.343
						c1.39,3.234-2.341,8.526-1.113,11.842c1.222,3.299,7.501,4.883,8.559,8.258c1.052,3.356-3.199,8.24-2.314,11.666
						c0.879,3.404,6.964,5.619,7.673,9.087c0.704,3.443-4.022,7.868-3.49,11.371c0.528,3.472,6.356,6.294,6.711,9.82
						c0.351,3.493-4.798,7.418-4.621,10.96C686.431,257.508,691.947,260.9,691.947,264.448z"/>
				</g>
				<g>
					<path id="XMLID_13_" style="fill:#4C64A4;" d="M481.686,142.323c67.387,0.239,121.819,55.076,121.566,122.463
						c-0.247,67.379-55.069,121.805-122.456,121.559c-67.387-0.253-121.819-55.076-121.566-122.456
						C359.477,196.503,414.306,142.077,481.686,142.323z"/>
					<path style="fill:#394B7B;" d="M481.686,142.323c-42.53-0.155-80.04,21.483-102,54.401
						c19.465-12.968,42.858-20.497,68.004-20.405c67.386,0.239,121.819,55.076,121.566,122.463
						c-0.091,24.85-7.623,47.925-20.454,67.158c32.694-21.781,54.296-58.92,54.45-101.154
						C603.505,197.399,549.073,142.563,481.686,142.323z"/>
					<path style="fill:#F6F6F6;" d="M459.831,377.145c0,12.755-10.339,23.089-23.098,23.089c-12.746,0-23.086-10.334-23.086-23.089
						c0-12.758,10.34-23.098,23.086-23.098C449.491,354.047,459.831,364.387,459.831,377.145z"/>
					<path style="fill:#F6F6F6;" d="M413.647,289.699c0,23.321-18.908,42.226-42.24,42.226
						c-23.314,0.014-42.226-18.905-42.226-42.226c0-23.325,18.912-42.233,42.226-42.233
						C394.739,247.466,413.647,266.374,413.647,289.699z"/>
				</g>
			</g>
		</g>
	</g>
</g>
</svg>
