<?xml version="1.0" encoding="iso-8859-1"?>
<!-- Generator: Adobe Illustrator 18.1.0, SVG Export Plug-In . SVG Version: 6.00 Build 0)  -->
<svg version="1.0" xmlns="http://www.w3.org/2000/svg" xmlns:xlink="http://www.w3.org/1999/xlink" x="0px" y="0px"
	 viewBox="0 0 1214.851 229.803" style="enable-background:new 0 0 1214.851 229.803;" xml:space="preserve">
<g id="Background">
</g>
<g id="Objects">
	<g>
		<g>
			
				<circle id="XMLID_16_" style="fill:none;stroke:#00C7AD;stroke-width:4;stroke-miterlimit:10;" cx="117.633" cy="114.901" r="106.467"/>
			<g>
				<g>
					<path style="fill:#00C7AD;" d="M215.024,114.902c0,1.662-2.584,3.251-2.666,4.893c-0.083,1.659,2.329,3.498,2.165,5.134
						c-0.166,1.652-2.896,2.974-3.144,4.601c-0.249,1.641,1.964,3.714,1.635,5.327c-0.332,1.625-3.183,2.663-3.594,4.258
						c-0.415,1.605,1.577,3.893,1.084,5.466c-0.496,1.581-3.437,2.323-4.01,3.869c-0.576,1.553,1.172,4.032,0.521,5.547
						c-0.654,1.521-3.655,1.96-4.383,3.44c-0.73,1.486,0.756,4.129-0.046,5.571c-0.804,1.446-3.835,1.578-4.709,2.977
						c-0.876,1.403,0.335,4.184-0.61,5.538c-0.946,1.357-3.974,1.181-4.986,2.486c-1.013,1.307-0.088,4.196-1.165,5.448
						c-1.077,1.254-4.072,0.774-5.211,1.972c-1.139,1.198-0.509,4.165-1.707,5.304c-1.197,1.139-4.129,0.36-5.383,1.438
						c-1.253,1.076-0.925,4.092-2.232,5.105c-1.305,1.012-4.144-0.058-5.5,0.888c-1.354,0.944-1.332,3.977-2.735,4.854
						c-1.4,0.874-4.116-0.476-5.562,0.328c-1.442,0.802-1.727,3.822-3.213,4.552c-1.48,0.727-4.045-0.892-5.566-0.238
						c-1.515,0.651-2.106,3.626-3.659,4.202c-1.545,0.573-3.932-1.299-5.513-0.804c-1.572,0.493-2.463,3.392-4.068,3.807
						c-1.595,0.412-3.778-1.694-5.403-1.361c-1.613,0.33-2.794,3.124-4.435,3.373c-1.627,0.247-3.584-2.069-5.236-1.903
						c-1.636,0.164-3.094,2.825-4.753,2.907c-1.642,0.082-3.358-2.419-5.02-2.419c-1.662,0-3.378,2.501-5.019,2.419
						c-1.659-0.083-3.117-2.743-4.753-2.907c-1.652-0.166-3.61,2.15-5.237,1.903c-1.641-0.249-2.822-3.043-4.435-3.373
						c-1.625-0.332-3.809,1.773-5.403,1.361c-1.605-0.415-2.496-3.314-4.069-3.807c-1.581-0.496-3.968,1.376-5.514,0.803
						c-1.553-0.576-2.144-3.551-3.659-4.202c-1.521-0.654-4.086,0.965-5.567,0.238c-1.486-0.73-1.771-3.75-3.213-4.552
						c-1.446-0.804-4.162,0.546-5.562-0.328c-1.403-0.876-1.381-3.91-2.735-4.854c-1.357-0.946-4.195,0.123-5.5-0.889
						c-1.307-1.013-0.979-4.029-2.232-5.105c-1.254-1.077-4.185-0.299-5.383-1.438c-1.198-1.139-0.568-4.106-1.707-5.304
						c-1.139-1.197-4.134-0.718-5.211-1.972c-1.076-1.253-0.152-4.142-1.165-5.448c-1.012-1.305-4.04-1.13-4.986-2.486
						c-0.944-1.354,0.267-4.135-0.609-5.538c-0.874-1.4-3.905-1.531-4.709-2.978c-0.802-1.442,0.685-4.086-0.045-5.571
						c-0.728-1.48-3.729-1.919-4.383-3.44c-0.651-1.515,1.097-3.994,0.521-5.547c-0.573-1.545-3.514-2.287-4.009-3.868
						c-0.493-1.572,1.498-3.86,1.084-5.465c-0.412-1.595-3.262-2.632-3.594-4.257c-0.33-1.613,1.884-3.686,1.635-5.327
						c-0.247-1.627-2.978-2.948-3.144-4.6c-0.164-1.636,2.247-3.475,2.165-5.135c-0.082-1.642-2.666-3.231-2.666-4.893
						c0-1.662,2.584-3.251,2.666-4.893c0.083-1.659-2.329-3.498-2.165-5.134c0.166-1.652,2.896-2.974,3.144-4.601
						c0.249-1.641-1.964-3.714-1.635-5.327c0.332-1.625,3.183-2.663,3.595-4.258c0.415-1.605-1.577-3.893-1.084-5.466
						c0.496-1.581,3.437-2.323,4.01-3.869c0.576-1.553-1.172-4.032-0.521-5.547c0.654-1.521,3.655-1.96,4.383-3.44
						c0.73-1.486-0.756-4.129,0.046-5.571c0.804-1.446,3.835-1.578,4.709-2.977c0.876-1.403-0.335-4.184,0.61-5.538
						c0.946-1.357,3.974-1.181,4.986-2.486c1.013-1.307,0.088-4.196,1.165-5.449c1.077-1.254,4.072-0.774,5.211-1.972
						c1.139-1.198,0.509-4.165,1.707-5.304c1.197-1.138,4.129-0.36,5.383-1.438c1.253-1.076,0.925-4.092,2.232-5.105
						c1.305-1.012,4.144,0.058,5.5-0.888c1.354-0.944,1.332-3.978,2.735-4.854c1.4-0.874,4.116,0.476,5.562-0.328
						c1.442-0.802,1.727-3.822,3.213-4.552c1.48-0.727,4.045,0.892,5.566,0.238c1.515-0.651,2.106-3.626,3.659-4.202
						c1.545-0.573,3.932,1.299,5.513,0.804c1.572-0.493,2.463-3.392,4.068-3.807c1.595-0.412,3.778,1.694,5.403,1.362
						c1.613-0.33,2.794-3.124,4.435-3.373c1.627-0.247,3.584,2.069,5.236,1.903c1.636-0.164,3.094-2.825,4.754-2.907
						c1.642-0.082,3.358,2.419,5.02,2.419c1.662,0,3.378-2.501,5.019-2.419c1.659,0.083,3.117,2.743,4.753,2.907
						c1.652,0.166,3.61-2.15,5.237-1.903c1.641,0.249,2.822,3.043,4.435,3.373c1.625,0.332,3.809-1.773,5.403-1.361
						c1.605,0.415,2.496,3.314,4.069,3.807c1.581,0.496,3.968-1.376,5.514-0.803c1.553,0.576,2.144,3.551,3.659,4.202
						c1.521,0.654,4.086-0.965,5.567-0.238c1.486,0.73,1.771,3.75,3.212,4.552c1.446,0.804,4.162-0.546,5.562,0.328
						c1.403,0.876,1.381,3.91,2.735,4.854c1.357,0.946,4.195-0.123,5.5,0.889c1.307,1.013,0.979,4.029,2.232,5.105
						c1.254,1.077,4.185,0.299,5.383,1.438c1.198,1.139,0.568,4.106,1.707,5.304c1.138,1.197,4.134,0.718,5.211,1.972
						c1.076,1.253,0.152,4.142,1.164,5.448c1.012,1.305,4.04,1.13,4.986,2.486c0.944,1.354-0.267,4.135,0.609,5.538
						c0.874,1.4,3.905,1.531,4.709,2.978c0.802,1.442-0.685,4.086,0.045,5.571c0.727,1.48,3.729,1.919,4.383,3.44
						c0.651,1.515-1.097,3.994-0.521,5.547c0.573,1.545,3.514,2.287,4.009,3.868c0.493,1.572-1.499,3.86-1.084,5.465
						c0.412,1.595,3.262,2.632,3.594,4.257c0.33,1.613-1.884,3.686-1.635,5.327c0.247,1.627,2.977,2.948,3.143,4.6
						c0.164,1.636-2.247,3.475-2.165,5.135C212.441,111.65,215.024,113.239,215.024,114.902z"/>
				</g>
				<g>
					<path id="XMLID_15_" style="fill:#4C64A4;" d="M116.529,57.693c31.567,0.112,57.065,25.8,56.947,57.367
						c-0.115,31.563-25.796,57.059-57.363,56.943c-31.567-0.119-57.065-25.8-56.947-57.363
						C59.282,83.073,84.966,57.578,116.529,57.693z"/>
					<path style="fill:#394B7B;" d="M116.529,57.693C96.607,57.62,79.035,67.757,68.748,83.177
						c9.118-6.075,20.076-9.602,31.856-9.559c31.567,0.112,57.065,25.8,56.947,57.367c-0.042,11.641-3.571,22.45-9.581,31.46
						c15.315-10.203,25.434-27.601,25.507-47.385C173.595,83.493,148.096,57.805,116.529,57.693z"/>
					<path style="fill:#F6F6F6;" d="M106.291,167.693c0,5.975-4.843,10.816-10.82,10.816c-5.971,0-10.814-4.841-10.814-10.816
						c0-5.976,4.844-10.82,10.814-10.82C101.448,156.873,106.291,161.717,106.291,167.693z"/>
					<path style="fill:#F6F6F6;" d="M84.657,126.73c0,10.925-8.857,19.781-19.787,19.781c-10.921,0.007-19.78-8.856-19.78-19.781
						c0-10.926,8.859-19.784,19.78-19.784C75.8,106.946,84.657,115.804,84.657,126.73z"/>
				</g>
			</g>
		</g>
		<g>
			<path style="fill:#FFFFFF;" d="M273.424,182.115V73.354h60.036v21.752h-34.513v19.288h31.758v21.752h-31.758v45.969H273.424z"/>
			<path style="fill:#FFFFFF;" d="M344.046,182.115V73.354h25.522v108.761H344.046z"/>
			<path style="fill:#FFFFFF;" d="M400.746,145.717v7.686c0,3.576,0.748,6.43,2.247,8.555c1.498,2.127,4.134,3.19,7.904,3.19
				c2.803,0,4.93-1.063,6.381-3.19c1.45-2.125,2.175-4.688,2.175-7.686c0-3.674-1.014-6.573-3.044-8.701
				c-2.031-2.125-5.076-4.398-9.136-6.816c-0.486-0.29-1.16-0.674-2.031-1.159c-4.544-2.611-8.338-5.003-11.383-7.178
				s-5.681-4.518-7.904-7.032c-2.418-2.9-4.256-6.115-5.51-9.645c-1.258-3.528-1.886-7.562-1.886-12.108
				c0-10.055,2.828-17.715,8.483-22.986c5.656-5.267,13.509-7.904,23.565-7.904c10.344,0,18.344,2.95,24,8.847
				c5.655,5.897,8.483,13.729,8.483,23.491l-0.146,1.451c0,0.484,0,0.967,0,1.449h-23.492v-1.305
				c-0.097-2.125-0.242-3.916-0.435-5.365c-0.195-1.451-0.558-2.851-1.087-4.206c-0.533-1.353-1.355-2.465-2.466-3.336
				c-1.112-0.87-2.587-1.351-4.423-1.449c-2.707,0-4.785,0.63-6.236,1.885c-1.45,1.257-2.32,3.046-2.611,5.365
				c0,0.196,0,0.486,0,0.871c-0.097,0.29-0.145,0.58-0.145,0.87c0,2.515,0.653,4.617,1.958,6.309
				c1.305,1.691,3.263,3.456,5.873,5.293c1.933,1.257,4.978,3.094,9.136,5.509c7.153,4.158,12.036,7.446,14.647,9.861
				c3.19,2.9,5.558,6.381,7.105,10.442c1.545,4.06,2.321,9.233,2.321,15.516c0,10.442-2.805,18.468-8.411,24.073
				c-5.608,5.607-13.729,8.411-24.362,8.411c-5.608,0-10.539-0.726-14.792-2.177c-4.255-1.449-7.736-3.454-10.44-6.017
				c-2.708-2.561-4.713-5.487-6.019-8.773c-1.305-3.286-1.958-6.766-1.958-10.442v-11.6H400.746z"/>
			<path style="fill:#FFFFFF;" d="M494.28,111.348v-6.96c0-4.544-0.725-8.024-2.175-10.44c-1.45-2.417-3.433-3.626-5.946-3.626
				c-3.77,0-6.357,0.919-7.758,2.755c-1.403,1.839-2.103,4.691-2.103,8.557l-0.145,53.799c0,3.19,0.725,5.609,2.175,7.252
				c1.45,1.645,3.771,2.465,6.961,2.465c2.03,0,3.697-0.484,5.002-1.451c1.305-0.964,2.271-2.197,2.9-3.698
				c0.628-1.497,1.038-3.116,1.232-4.857c0.193-1.739,0.291-3.626,0.291-5.655v-9.861h25.522v13.341
				c0,9.861-2.997,17.619-8.991,23.275c-5.996,5.655-15.277,8.483-27.843,8.483c-11.408,0-19.699-2.924-24.87-8.773
				c-5.173-5.849-7.758-14.478-7.758-25.886v-44.664c0-11.794,2.778-20.521,8.338-26.176c5.558-5.655,14.186-8.483,25.885-8.483
				c11.214,0,19.817,2.539,25.813,7.614c5.993,5.075,8.991,13.029,8.991,23.855v9.135H494.28z"/>
			<path style="fill:#FFFFFF;" d="M524.877,182.115l23.782-108.761h30.743l23.637,108.761h-25.813l-3.625-21.173H553.59
				l-3.045,21.173H524.877z M564.031,93.075h-0.29l-7.396,48.726h14.791L564.031,93.075z"/>
			<path style="fill:#FFFFFF;" d="M607.39,182.115V73.354h25.523v87.009h31.178v21.752H607.39z"/>
			<path style="fill:#FFFFFF;" d="M747.471,111.348v-6.96c0-4.544-0.725-8.024-2.175-10.44c-1.45-2.417-3.433-3.626-5.946-3.626
				c-3.77,0-6.357,0.919-7.758,2.755c-1.403,1.839-2.103,4.691-2.103,8.557l-0.145,53.799c0,3.19,0.725,5.609,2.175,7.252
				c1.45,1.645,3.771,2.465,6.961,2.465c2.03,0,3.697-0.484,5.002-1.451c1.305-0.964,2.271-2.197,2.9-3.698
				c0.628-1.497,1.038-3.116,1.232-4.857c0.193-1.739,0.291-3.626,0.291-5.655v-9.861h25.522v13.341
				c0,9.861-2.997,17.619-8.991,23.275c-5.996,5.655-15.277,8.483-27.843,8.483c-11.408,0-19.699-2.924-24.87-8.773
				c-5.173-5.849-7.758-14.478-7.758-25.886v-44.664c0-11.794,2.778-20.521,8.338-26.176c5.558-5.655,14.186-8.483,25.885-8.483
				c11.214,0,19.817,2.539,25.813,7.614c5.993,5.075,8.991,13.029,8.991,23.855v9.135H747.471z"/>
			<path style="fill:#FFFFFF;" d="M784.16,182.115V73.354h25.522v108.761H784.16z"/>
			<path style="fill:#FFFFFF;" d="M821.573,182.115V73.354h27.698c6.186,0,11.601,0.316,16.241,0.943
				c4.641,0.63,8.796,2.007,12.471,4.132c4.544,2.611,7.589,6.189,9.136,10.732c1.545,4.545,2.321,9.911,2.321,16.095v48.29
				c-0.098,11.216-3.723,19.048-10.876,23.493c-3.095,2.029-6.478,3.384-10.151,4.06c-3.675,0.678-7.831,1.015-12.471,1.015H821.573
				z M847.096,162.538c0.482,0,1.11,0,1.885,0c0.675,0.098,1.207,0.146,1.595,0.146c5.51,0,9.136-1.161,10.876-3.482
				c1.74-2.319,2.61-6.185,2.61-11.6c0-0.774-0.05-1.595-0.145-2.467c0-1.254,0-2.223,0-2.899v-35.529c0-3.19-0.29-5.679-0.87-7.468
				c-0.581-1.789-1.5-3.118-2.755-3.988c-1.257-0.871-2.877-1.451-4.858-1.741c-1.982-0.29-4.762-0.482-8.338-0.58V162.538z"/>
			<path style="fill:#FFFFFF;" d="M894.661,182.115l23.782-108.761h30.743l23.637,108.761h-25.813l-3.625-21.173h-20.012
				l-3.045,21.173H894.661z M933.815,93.075h-0.29l-7.396,48.726h14.791L933.815,93.075z"/>
			<path style="fill:#FFFFFF;" d="M978.479,182.115V73.354h27.698c6.186,0,11.601,0.316,16.241,0.943
				c4.64,0.63,8.796,2.007,12.471,4.132c4.544,2.611,7.589,6.189,9.136,10.732c1.545,4.545,2.321,9.911,2.321,16.095v48.29
				c-0.098,11.216-3.723,19.048-10.876,23.493c-3.095,2.029-6.479,3.384-10.151,4.06c-3.675,0.678-7.831,1.015-12.471,1.015H978.479
				z M1004.002,162.538c0.482,0,1.11,0,1.885,0c0.675,0.098,1.207,0.146,1.595,0.146c5.51,0,9.136-1.161,10.876-3.482
				c1.74-2.319,2.61-6.185,2.61-11.6c0-0.774-0.05-1.595-0.145-2.467c0-1.254,0-2.223,0-2.899v-35.529c0-3.19-0.29-5.679-0.87-7.468
				c-0.581-1.789-1.5-3.118-2.755-3.988c-1.257-0.871-2.877-1.451-4.858-1.741c-1.982-0.29-4.762-0.482-8.338-0.58V162.538z"/>
			<path style="fill:#FFFFFF;" d="M1051.565,182.115l23.782-108.761h30.743l23.637,108.761h-25.813l-3.625-21.173h-20.012
				l-3.045,21.173H1051.565z M1088.834,61.898l-1.015-0.436c-3.77-1.449-6.333-2.175-7.686-2.175c-1.645,0-3.045,0.606-4.206,1.813
				c-1.159,1.209-1.885,2.683-2.175,4.424h-11.456c0.58-2.804,1.28-5.367,2.103-7.686c0.82-2.321,1.907-4.446,3.262-6.381
				c1.352-1.933,3.068-3.482,5.148-4.641c2.078-1.159,4.518-1.739,7.323-1.739c2.03,0,3.938,0.242,5.728,0.724
				c1.788,0.486,3.891,1.161,6.309,2.031c0.58,0.29,1.015,0.486,1.305,0.58c3.672,1.547,6.283,2.321,7.831,2.321
				c1.449,0,2.802-0.556,4.06-1.667c1.255-1.111,1.933-2.343,2.03-3.698h11.602c-0.581,5.607-2.393,10.223-5.438,13.849
				c-3.045,3.624-7.276,5.437-12.689,5.437C1097.293,64.653,1093.279,63.735,1088.834,61.898z M1090.719,93.075h-0.29l-7.396,48.726
				h14.791L1090.719,93.075z"/>
			<path style="fill:#FFFFFF;" d="M1203.685,147.456c0,12.761-2.611,22.166-7.831,28.205c-5.221,6.045-14.066,9.065-26.538,9.065
				c-12.569,0-21.512-3.046-26.828-9.137c-5.318-6.091-7.976-15.466-7.976-28.133v-44.228c0-10.442,3.021-18.466,9.063-24.073
				c6.041-5.605,14.621-8.411,25.74-8.411c11.116,0,19.625,2.806,25.522,8.411c5.896,5.607,8.846,13.631,8.846,24.073V147.456z
				 M1178.163,104.967c0-2.125-0.098-3.988-0.291-5.583c-0.195-1.595-0.58-3.068-1.16-4.424c-0.581-1.351-1.475-2.465-2.683-3.334
				c-1.209-0.87-2.828-1.305-4.857-1.305c-1.935,0-3.53,0.436-4.785,1.305c-1.258,0.87-2.176,2.007-2.755,3.408
				c-0.58,1.401-0.992,2.924-1.232,4.568c-0.243,1.645-0.363,3.432-0.363,5.365v44.664c0,1.839,0.12,3.626,0.363,5.367
				c0.24,1.739,0.675,3.384,1.305,4.929c0.627,1.547,1.57,2.806,2.828,3.77c1.255,0.967,2.851,1.451,4.785,1.451
				c1.933,0,3.528-0.484,4.786-1.451c1.255-0.964,2.15-2.197,2.682-3.698c0.531-1.497,0.893-3.092,1.088-4.785
				c0.193-1.689,0.291-3.552,0.291-5.583V104.967z"/>
		</g>
	</g>
</g>
</svg>
